<?xml version="1.0" encoding="UTF-8" standalone="no"?>
<svg
   xmlns:dc="http://purl.org/dc/elements/1.1/"
   xmlns:cc="http://creativecommons.org/ns#"
   xmlns:rdf="http://www.w3.org/1999/02/22-rdf-syntax-ns#"
   xmlns:svg="http://www.w3.org/2000/svg"
   xmlns="http://www.w3.org/2000/svg"
   xmlns:sodipodi="http://sodipodi.sourceforge.net/DTD/sodipodi-0.dtd"
   xmlns:inkscape="http://www.inkscape.org/namespaces/inkscape"
   width="483.37848mm"
   height="133.61954mm"
   viewBox="0 0 483.37848 133.61954"
   version="1.1"
   id="svg8"
   inkscape:version="1.0.2 (1.0.2+r75+1)"
   sodipodi:docname="LOGO_IFAL_PRETO.svg">
  <defs
     id="defs2" />
  <sodipodi:namedview
     id="base"
     pagecolor="#ffffff"
     bordercolor="#666666"
     borderopacity="1.0"
     inkscape:pageopacity="0.0"
     inkscape:pageshadow="2"
     inkscape:zoom="0.35"
     inkscape:cx="1534.4748"
     inkscape:cy="260.30262"
     inkscape:document-units="mm"
     inkscape:current-layer="layer1"
     inkscape:document-rotation="0"
     showgrid="false"
     inkscape:window-width="1920"
     inkscape:window-height="1003"
     inkscape:window-x="1600"
     inkscape:window-y="0"
     inkscape:window-maximized="1"
     fit-margin-top="0"
     fit-margin-left="0"
     fit-margin-right="0"
     fit-margin-bottom="0" />
  <metadata
     id="metadata5">
    <rdf:RDF>
      <cc:Work
         rdf:about="">
        <dc:format>image/svg+xml</dc:format>
        <dc:type
           rdf:resource="http://purl.org/dc/dcmitype/StillImage" />
        <dc:title></dc:title>
      </cc:Work>
    </rdf:RDF>
  </metadata>
  <g
     inkscape:label="Layer 1"
     inkscape:groupmode="layer"
     id="layer1"
     transform="translate(58.847379,-79.294932)">
    <path
       style="fill:#000000;stroke-width:0.229161"
       d="m 99.597862,212.71385 c -1.41686,-0.24926 -2.06968,-0.53271 -2.95633,-1.28357 -2.02825,-1.71769 -1.75804,-4.82936 0.53689,-6.18299 0.57689,-0.34026 1.04891,-0.65804 1.04891,-0.70621 0,-0.0481 -0.20521,-0.42625 -0.456,-0.84027 -0.72428,-1.1956 -0.48997,-2.44187 0.65515,-3.4849 l 0.47436,-0.43204 -1.00764,-1.12798 c -1.6232,-1.81707 -1.85611,-4.46014 -0.57927,-6.57332 1.04147,-1.72361 3.752798,-2.62396 6.468648,-2.14794 0.797,0.13983 2.49428,0.25387 3.77172,0.25387 h 2.32264 v 0.66288 c 0,0.70439 -0.40498,0.93696 -1.64259,0.94329 -0.83375,0.005 -0.92564,0.24655 -0.52588,1.38695 0.74471,2.12441 0.20713,4.37306 -1.35546,5.66937 -1.05658,0.87655 -2.18979,1.22321 -3.99847,1.22321 -0.77888,0 -1.61393,0.10651 -1.85563,0.23679 -0.603958,0.32532 -1.184058,1.52697 -1.007478,2.08694 0.21702,0.68817 1.034058,0.89495 3.536418,0.89495 3.7592,0 5.40896,0.60754 6.28625,2.31495 0.42181,0.82099 0.43272,2.98618 0.02,3.95721 -1.05144,2.47325 -5.4639,3.90028 -9.736158,3.14874 z m 5.709848,-2.20558 c 1.32411,-0.53322 2.05656,-1.50358 2.05656,-2.72446 0,-1.51625 -0.47579,-1.93811 -2.51266,-2.22779 -2.09318,-0.29765 -5.000028,-0.10783 -5.954078,0.38859 -0.39832,0.20718 -0.84774,0.7085 -1.03084,1.14956 -0.79754,1.92111 -0.0768,3.24754 2.0738,3.81679 1.014498,0.26855 4.315458,0.0217 5.367218,-0.40269 z m -1.14136,-12.44593 c 1.13889,-0.57262 1.65355,-1.68887 1.52334,-3.30397 -0.1788,-2.21794 -1.2514,-3.19128 -3.51472,-3.18951 -1.32181,0.001 -2.403538,0.60378 -2.932988,1.63424 -0.52006,1.01217 -0.37301,3.42591 0.25167,4.13082 1.000618,1.12911 3.195278,1.47124 4.672678,0.72842 z m -21.841008,7.54956 c -0.51712,-0.23624 -1.23547,-0.81932 -1.59634,-1.29552 -0.55423,-0.73133 -0.66747,-1.119 -0.72912,-2.49644 -0.0903,-2.01888 0.3351,-2.92749 1.85952,-3.97133 1.23118,-0.84303 2.61134,-1.17895 5.77692,-1.406 l 2.25353,-0.16157 0.0624,-1.03455 c 0.12204,-2.02253 -1.22411,-3.44645 -3.26033,-3.44887 -0.50253,-6.9e-4 -1.66324,0.22239 -2.57933,0.49578 -1.77622,0.52987 -1.97246,0.481 -2.2266,-0.55462 -0.14273,-0.58171 -0.0716,-0.67133 0.86471,-1.08814 2.18149,-0.97123 5.71612,-1.03608 7.44439,-0.13659 0.89177,0.46414 1.57839,1.36289 1.86791,2.44507 0.13837,0.51709 0.20831,3.28505 0.17211,6.80953 l -0.061,5.9383 h -0.79092 c -0.72565,0 -0.80763,-0.0711 -0.99349,-0.86214 -0.11137,-0.47417 -0.3084,-0.86212 -0.43772,-0.86212 -0.12932,0 -0.62581,0.3552 -1.10327,0.78933 -0.47747,0.43415 -1.26085,0.89913 -1.74086,1.03327 -1.38955,0.38836 -3.71554,0.29433 -4.78249,-0.19332 z m 4.64625,-1.7467 c 1.93702,-0.57897 3.02807,-2.25375 3.0312,-4.65301 0.001,-1.08837 0.0887,-1.04615 -2.05456,-0.99348 -3.84929,0.0945 -5.48216,1.04205 -5.48216,3.18102 0,2.31515 1.76926,3.28331 4.50552,2.46547 z m 29.832138,1.81006 c -1.37201,-0.48931 -2.91507,-1.95797 -3.65891,-3.48253 -0.60257,-1.23501 -0.64099,-1.49294 -0.64099,-4.30246 0,-2.55418 0.07,-3.14083 0.48097,-4.03495 0.70091,-1.52461 1.77562,-2.64345 3.22447,-3.35688 1.06829,-0.52605 1.57649,-0.62853 3.1252,-0.63019 2.37701,-0.002 3.85015,0.61218 5.26644,2.19762 1.42776,1.59827 1.83748,2.95109 1.83364,6.05431 -0.003,2.29988 -0.0631,2.66023 -0.66533,3.97917 -0.81418,1.78309 -2.25316,3.12814 -3.86062,3.6086 -1.43826,0.42987 -3.85117,0.41441 -5.10487,-0.0326 z m 4.77263,-2.07154 c 1.78756,-0.90689 2.54991,-2.83575 2.4272,-6.14116 -0.12678,-3.41512 -1.34538,-5.20132 -3.80142,-5.57201 -2.24833,-0.33932 -4.21168,0.78981 -5.00937,2.88093 -0.49325,1.29306 -0.54133,4.4848 -0.091,6.04448 0.45731,1.58392 1.49561,2.68327 2.88427,3.05379 1.24175,0.33135 2.61318,0.22972 3.59038,-0.2661 z m 10.7447,2.19118 c -1.0104,-0.2937 -2.18808,-1.5354 -2.52287,-2.66005 -1.24117,-4.16947 1.90618,-6.71367 8.33082,-6.73439 1.61041,-0.005 1.81515,-0.24139 1.53896,-1.77623 -0.46507,-2.5841 -2.18482,-3.37389 -5.34966,-2.45683 -2.33351,0.67619 -2.42547,0.67279 -2.69282,-0.0991 -0.31111,-0.89822 0.0552,-1.24278 1.88754,-1.77553 2.96665,-0.86251 5.96391,-0.43001 7.29483,1.05269 1.13695,1.26661 1.29565,2.41301 1.22406,8.84376 l -0.0614,5.51761 h -0.79948 c -0.698,0 -0.8295,-0.0933 -1.03586,-0.73606 -0.34497,-1.07406 -0.46557,-1.11188 -1.29585,-0.40651 -1.26939,1.07846 -2.41424,1.47891 -4.17837,1.46163 -0.87944,-0.008 -1.93238,-0.1127 -2.33989,-0.23109 z m 5.3094,-2.34464 c 1.22421,-0.67286 1.9416,-2.09902 1.9416,-3.85985 0,-0.83804 -0.10234,-1.34209 -0.28553,-1.40655 -0.15705,-0.0551 -1.27383,-0.0245 -2.48173,0.0698 -2.52288,0.19552 -3.87833,0.75067 -4.42339,1.81151 -0.76846,1.49564 -0.11057,3.46872 1.30004,3.89896 1.04638,0.31915 2.86369,0.0828 3.94901,-0.51387 z m 10.09413,2.34923 c -1.48581,-0.35184 -1.75665,-0.59184 -1.75665,-1.55675 0,-0.48023 0.06,-0.93359 0.13339,-1.00743 0.0734,-0.0739 0.67022,0.0517 1.32633,0.27885 1.76625,0.61161 3.36828,0.77219 4.7737,0.47854 1.95816,-0.40915 2.8097,-1.56173 2.21727,-3.00123 -0.34894,-0.84786 -1.18296,-1.37429 -4.01398,-2.53363 -3.51463,-1.43931 -4.4367,-2.38399 -4.4367,-4.5454 0,-3.39966 4.22737,-5.05501 9.15112,-3.58336 1.31844,0.39408 1.4355,0.53971 1.11529,1.38738 -0.34373,0.90994 -0.61103,1.0057 -1.67789,0.60096 -0.55352,-0.20989 -1.74597,-0.36526 -2.91664,-0.37988 -2.42315,-0.0302 -3.22793,0.40025 -3.34489,1.7891 -0.0952,1.13169 0.72714,1.90236 2.9589,2.77269 4.52889,1.76618 5.68721,2.81596 5.67343,5.14176 -0.0113,1.93546 -1.26076,3.45745 -3.35998,4.09331 -1.15644,0.35028 -4.48182,0.38731 -5.84269,0.0652 z m -94.725208,-0.28376 c 0,-0.41512 7.72551,-20.17331 8.03421,-20.54765 0.31206,-0.37842 1.36339,-0.38402 1.83222,-0.0111 0.49591,0.3959 8.2291,20.44524 7.98187,20.69408 -0.10862,0.10939 -0.64801,0.16645 -1.1985,0.12654 l -1.00092,-0.0723 -1.26744,-3.21862 -1.26744,-3.21861 h -4.18864 -4.18862 l -1.16916,2.9939 c -0.64302,1.64663 -1.2523,3.12088 -1.35393,3.27608 -0.25903,0.39555 -2.21365,0.37443 -2.21365,-0.0245 z m 12.10646,-8.92566 c 0,-0.42845 -3.0356,-8.48068 -3.15268,-8.36285 -0.21457,0.21589 -3.00063,7.83627 -3.00759,8.22615 -0.007,0.36368 0.28921,0.40235 3.07655,0.40235 2.18022,0 3.08372,-0.0779 3.08372,-0.26557 z m 8.68012,-1.9184 v -11.17538 l 1.08502,0.0701 1.085,0.0701 v 11.03522 11.03523 l -1.085,0.0701 -1.08502,0.0701 z m -130.15215,10.56145 c -1.19466,-0.84217 -1.1919,-0.81163 -1.18828,-13.13642 0.003,-12.30943 -0.0146,-12.11939 1.21263,-13.03612 0.63495,-0.47451 0.82423,-0.48195 12.26103,-0.48195 11.43679,0 11.62608,0.008 12.26103,0.48195 1.22667,0.91673 1.20899,0.72669 1.21261,13.03612 0.003,9.71245 -0.0483,11.54973 -0.33796,12.1133 -0.73805,1.43644 -0.21981,1.38193 -13.13568,1.38193 -10.30179,0 -11.84013,-0.0448 -12.28538,-0.35881 z m 31.81483,-0.40065 c -0.60137,-0.60525 -0.78534,-1.01376 -0.90593,-2.01165 -0.0833,-0.68868 -0.11881,-5.95935 -0.0792,-11.71262 0.0791,-11.46528 0.0771,-11.44918 1.45782,-12.19284 0.91475,-0.49273 23.24859011,-0.50318 24.16175011,-0.0112 1.44319999,0.77735 1.40014999,0.40374 1.47251999,12.77892 0.0567,9.69566 0.017,11.39434 -0.28565,12.19268 -0.67360999,1.77754 -0.19637,1.71627 -13.3724301,1.71627 h -11.69435 z M 100.06855,173.40018 c -1.530208,-0.21425 -4.216908,-0.9752 -4.810738,-1.36269 -0.40918,-0.26691 -0.61598,-4.50727 -0.24701,-5.06496 0.19721,-0.29806 0.36338,-0.28689 1.32131,0.0888 2.63985,1.03513 4.702838,1.51674 6.496918,1.51674 2.93255,0 4.07841,-0.76722 4.07841,-2.73077 0,-1.56834 -0.69979,-2.29131 -3.70652,-3.82926 -4.704648,-2.40646 -6.018368,-3.46276 -7.281348,-5.85459 -0.4662,-0.88289 -0.54601,-1.35473 -0.54435,-3.2186 0.002,-2.73325 0.54859,-4.12454 2.20889,-5.62698 1.85778,-1.6811 3.151518,-2.06812 6.924868,-2.07167 2.90372,-0.002 3.3807,0.0573 5.18439,0.65233 3.01462,0.99452 2.94576,0.88665 2.02552,3.17249 -0.42504,1.05581 -0.85585,2.01461 -0.95733,2.13064 -0.10927,0.12489 -1.04909,-0.0606 -2.30486,-0.45478 -2.43919,-0.76581 -5.14685,-0.91353 -6.21556,-0.33906 -1.18758,0.63836 -1.62037,2.34305 -0.93401,3.67891 0.37559,0.731 1.78096,1.6393 5.37188,3.47194 4.29733,2.19311 5.93902,4.38266 5.93902,7.92094 0,4.77936 -3.31011,7.70478 -9.07189,8.01759 -1.10368,0.06 -2.66858,0.0163 -3.47759,-0.0969 z m 82.67564,0.005 c -4.71081,-0.76223 -7.73523,-3.64605 -8.438,-8.0457 -0.35105,-2.19802 -0.32323,-19.36794 0.0321,-19.72545 0.17916,-0.1803 1.12509,-0.27587 2.73303,-0.27587 2.19732,0 2.48412,0.0473 2.69541,0.44466 0.1513,0.28482 0.23635,3.67866 0.23635,9.43907 0,6.00293 0.0871,9.34269 0.26197,10.04162 0.33484,1.33836 1.59724,2.6975 2.82171,3.03795 1.14809,0.31924 3.16522,0.32707 4.27586,0.0163 1.16648,-0.32606 2.21199,-1.26948 2.78294,-2.51119 0.45607,-0.99189 0.48471,-1.50786 0.59341,-10.69797 l 0.11413,-9.65581 h 2.74107 2.74109 l 0.0618,9.65581 c 0.0379,5.97053 -0.0278,10.07906 -0.17241,10.76477 -0.75344,3.56779 -3.36251,6.17716 -7.19753,7.19836 -1.52297,0.40554 -4.72533,0.56514 -6.28285,0.31314 z m 51.05277,0.0136 c -3.20004,-0.52448 -5.29974,-1.56574 -7.09684,-3.51935 -2.49598,-2.71339 -3.36489,-5.44484 -3.3827,-10.63348 -0.0113,-2.91842 0.0681,-3.72999 0.5068,-5.27963 1.68047,-5.93297 5.65966,-8.84874 12.14275,-8.89776 4.43791,-0.0336 7.42145,1.04114 9.66673,3.48199 2.47434,2.68986 3.42978,5.66928 3.42978,10.6954 0,5.17542 -1.01373,8.22262 -3.60403,10.83309 -1.5412,1.55318 -3.00265,2.40132 -5.0545,2.93334 -1.6822,0.43617 -5.08895,0.63536 -6.60799,0.3864 z m 5.48218,-5.47173 c 2.57608,-1.35149 3.76222,-4.08846 3.76222,-8.6811 0,-4.62402 -1.23919,-7.47819 -3.80326,-8.7598 -1.31719,-0.6584 -4.86729,-0.62082 -6.14201,0.0651 -1.30004,0.69947 -2.46253,2.07671 -3.09299,3.66433 -0.48491,1.22126 -0.537,1.70777 -0.53813,5.03042 0,3.25145 0.0565,3.82138 0.49667,4.9101 0.92116,2.27856 1.94807,3.35808 3.88502,4.08403 1.26493,0.4741 4.26117,0.30146 5.43248,-0.31302 z m -186.172088,4.94782 c -0.0616,-0.1621 -0.0854,-6.39856 -0.0527,-13.85883 l 0.0593,-13.56412 h 2.74108 2.74109 v 13.79403 13.79401 l -2.68835,0.0649 c -2.02363,0.0488 -2.71605,-0.008 -2.80036,-0.23 z m 12.61519,0.13415 c -0.0878,-0.0882 -0.15955,-6.22652 -0.15955,-13.64042 0,-10.17776 0.0671,-13.54739 0.27411,-13.75569 0.4054,-0.40803 6.66888,-0.38242 7.07625,0.0289 0.166,0.16754 2.81651,4.71967 5.88996,10.11564 3.07348,5.39593 5.65555,9.81081 5.73796,9.81081 0.0824,0 0.0971,-4.42365 0.0328,-9.8303 -0.10329,-8.66752 -0.0755,-9.86507 0.23478,-10.12423 0.24636,-0.20581 1.02669,-0.27411 2.6024,-0.22782 l 2.25051,0.066 v 13.79402 13.79403 h -3.64712 -3.64714 l -5.60428,-9.93194 c -3.08234,-5.46258 -5.71729,-10.04569 -5.85541,-10.18471 -0.18257,-0.18384 -0.24486,2.52802 -0.22818,9.93193 l 0.0229,10.18472 -2.41023,0.0649 c -1.32562,0.0356 -2.482,-0.008 -2.56976,-0.0958 z m 56.630858,-0.21071 c -0.0778,-0.20366 -0.14128,-5.32789 -0.14128,-11.38692 v -11.01644 l -3.36925,-0.002 c -1.85309,-0.002 -3.50167,-0.088 -3.66352,-0.19143 -0.21543,-0.13768 -0.27661,-0.79876 -0.22842,-2.46792 l 0.0658,-2.28 h 10.16486 10.16487 l 0.0658,2.28 c 0.0482,1.66916 -0.0129,2.33036 -0.22844,2.46792 -0.16183,0.1035 -1.80945,0.18952 -3.66136,0.19143 l -3.3671,0.002 -0.0593,11.32262 -0.0593,11.32259 -2.77115,0.0643 c -2.37592,0.0551 -2.79128,0.0112 -2.91241,-0.30619 z m 17.37125,0.20364 c -0.0838,-0.0841 -0.15229,-6.2192 -0.15229,-13.63311 0,-10.17776 0.0672,-13.54738 0.27411,-13.75568 0.37589,-0.37835 5.01491,-0.37835 5.3908,0 0.20685,0.20826 0.27412,3.53116 0.27412,13.54529 0,7.29821 -0.0624,13.4331 -0.13865,13.63312 -0.11553,0.30297 -0.58543,0.36364 -2.81722,0.36364 -1.47323,0 -2.74712,-0.069 -2.83087,-0.15315 z m 17.36022,0 c -0.0837,-0.0841 -0.15227,-5.20533 -0.15227,-11.38007 v -11.22681 l -3.36926,-0.002 c -1.8531,-0.002 -3.50166,-0.088 -3.66351,-0.19143 -0.21543,-0.13767 -0.27661,-0.79876 -0.22842,-2.46791 l 0.0658,-2.28001 9.70801,-0.0638 c 5.33941,-0.0351 9.9393,-0.008 10.22196,0.0618 0.48987,0.11975 0.51395,0.23217 0.51395,2.39574 0,1.85791 -0.0657,2.29538 -0.3613,2.40959 -0.19884,0.0768 -1.84338,0.13957 -3.65479,0.13957 h -3.29346 v 11.01642 c 0,6.05903 -0.0624,11.18007 -0.13869,11.38007 -0.11558,0.30298 -0.58543,0.36364 -2.81722,0.36364 -1.47323,0 -2.74712,-0.069 -2.83087,-0.15314 z m 50.89614,-0.1268 c -0.0605,-0.16211 -0.13546,-5.26055 -0.167,-11.32993 l -0.0573,-11.03522 -3.42637,-0.0611 c -4.06144,-0.0725 -3.99743,-0.032 -3.99743,-2.52678 0,-2.84761 -1.05303,-2.58477 10.35565,-2.58477 7.38199,0 9.95206,0.0698 10.15684,0.27588 0.39283,0.39535 0.37001,4.18569 -0.0273,4.51749 -0.18022,0.15042 -1.67211,0.27731 -3.71188,0.31552 l -3.4106,0.0638 -0.11413,11.26511 -0.11412,11.26513 -2.68835,0.0649 c -2.02447,0.0488 -2.71545,-0.008 -2.79815,-0.22999 z m 56.68063,-0.0766 c -0.25306,-0.66374 -0.16188,-26.53318 0.095,-27.01668 0.22636,-0.42563 0.55171,-0.44453 7.5951,-0.44116 4.04722,0.002 7.49121,0.0882 7.65322,0.19171 0.21475,0.13712 0.27665,0.77602 0.22852,2.35294 l -0.0661,2.16484 -4.66513,0.0624 c -2.97061,0.0396 -4.77524,0.15424 -4.96823,0.31554 -0.22285,0.18627 -0.30308,1.0311 -0.30308,3.19491 0,1.61795 0.0624,3.1054 0.1387,3.30541 0.11946,0.31374 0.72726,0.36364 4.4263,0.36364 3.39808,0 4.34279,0.0667 4.55329,0.32212 0.16995,0.20611 0.24172,1.05424 0.19937,2.35647 l -0.0664,2.03437 -4.37324,0.0624 c -3.26088,0.0464 -4.43627,0.13876 -4.6211,0.363 -0.15761,0.19116 -0.27033,2.17702 -0.30948,5.45526 l -0.0615,5.15462 -2.65684,0.0647 c -2.27158,0.0551 -2.67737,0.0111 -2.79818,-0.30618 z m 20.97969,0.0723 c -0.0606,-0.15966 -0.0836,-6.39429 -0.051,-13.85458 l 0.0594,-13.56411 7.51079,-0.0606 c 5.4618,-0.0439 7.59829,0.0136 7.8316,0.20747 0.242,0.20229 0.30487,0.78132 0.25576,2.35966 l -0.0653,2.09164 -4.66509,0.0624 c -2.97064,0.0396 -4.77528,0.15423 -4.96822,0.31552 -0.42928,0.35854 -0.42964,5.3226 0,5.6811 0.19019,0.15886 1.90871,0.27613 4.62557,0.31552 l 4.32248,0.0627 0.0663,2.03434 c 0.0424,1.30227 -0.0291,2.1503 -0.19938,2.3565 -0.21043,0.25524 -1.15518,0.32213 -4.55326,0.32213 -3.69904,0 -4.30665,0.0499 -4.42627,0.36363 -0.0763,0.20013 -0.13869,1.68744 -0.13869,3.30541 0,2.16381 0.0802,3.0087 0.3031,3.19492 0.19291,0.1613 1.9976,0.27583 4.96822,0.31553 l 4.66512,0.0624 v 2.29898 2.29902 l -7.71529,0.0606 c -6.04953,0.0475 -7.73916,-0.002 -7.82567,-0.22998 z m 21.28471,-0.0565 c -0.081,-0.21261 -0.14726,-6.36574 -0.14726,-13.67372 0,-11.53255 0.0453,-13.32509 0.34274,-13.5736 0.51445,-0.4297 10.92133,-0.16998 12.84753,0.32058 4.75725,1.2117 7.97673,4.45037 9.0717,9.12573 0.44243,1.88912 0.44595,6.04563 0.008,8.14118 -0.99044,4.72693 -4.37908,8.18132 -9.26882,9.44867 -1.09184,0.28296 -2.89508,0.40733 -7.08495,0.48863 -5.11476,0.0992 -5.63364,0.0741 -5.76774,-0.27747 z m 11.8295,-5.08045 c 1.59777,-0.56443 3.34944,-2.35526 4.02951,-4.11956 0.46274,-1.20045 0.53172,-1.78207 0.53172,-4.48306 0,-3.78689 -0.4359,-5.19637 -2.13631,-6.90778 -1.45411,-1.4635 -2.83512,-1.91135 -5.95007,-1.92946 l -2.39847,-0.0136 -0.06,8.73552 c -0.0329,4.80452 -0.005,8.87987 0.0624,9.05634 0.16945,0.44457 4.38734,0.20366 5.92112,-0.33806 z m 16.45259,5.13392 c -0.0601,-0.15803 -0.0826,-6.39122 -0.05,-13.8515 l 0.0594,-13.56412 7.538,-0.0609 c 6.88384,-0.0557 7.56275,-0.0271 7.82351,0.33133 0.29383,0.40366 0.40206,3.40959 0.14677,4.07892 -0.1201,0.31499 -0.75587,0.36368 -4.75122,0.36368 -3.28296,0 -4.69158,0.0796 -4.88666,0.27588 -0.37701,0.37944 -0.37701,5.27611 0,5.65555 0.19371,0.19496 1.52753,0.27588 4.54402,0.27588 3.68291,0 4.28903,0.0499 4.4086,0.36364 0.25549,0.67007 0.1471,3.67524 -0.14677,4.07263 -0.24686,0.33375 -0.87267,0.39414 -4.62558,0.44628 l -4.34008,0.0603 v 3.4485 3.44852 l 4.78639,0.0622 c 3.47924,0.0454 4.83509,0.13956 4.96471,0.34484 0.21044,0.33337 0.2474,3.64542 0.0468,4.17207 -0.12253,0.32155 -1.02224,0.36364 -7.77359,0.36364 -5.89739,0 -7.65979,-0.0654 -7.74415,-0.28737 z m 21.29086,0.13415 c -0.0836,-0.0841 -0.15243,-6.2192 -0.15243,-13.63311 0,-10.17778 0.0673,-13.5474 0.2741,-13.7557 0.35149,-0.35375 7.72657,-0.37757 10.4511,-0.0336 3.42772,0.43258 5.62007,1.53477 6.91617,3.47715 0.86979,1.30339 1.17308,2.50942 1.17496,4.67205 0.002,1.48984 -0.10894,2.07939 -0.58091,3.10366 -0.6449,1.39981 -1.80986,2.70599 -3.20287,3.59105 -0.66626,0.4233 -0.88439,0.69785 -0.80307,1.01082 0.1929,0.74224 7.27347,11.28914 7.52278,11.2055 0.13029,-0.0437 2.30681,-6.07539 4.83631,-13.40361 2.52952,-7.32824 4.68053,-13.45336 4.78002,-13.61142 0.13175,-0.20907 1.11454,-0.28737 3.6054,-0.28737 h 3.42457 l 0.3045,0.74717 c 1.24346,3.05133 9.24312,26.72595 9.08459,26.8855 -0.10927,0.10995 -1.47522,0.17079 -3.03529,0.13522 l -2.83657,-0.0649 -0.64059,-2.06909 c -0.35235,-1.13801 -0.81615,-2.58638 -1.03066,-3.21859 l -0.39004,-1.14953 h -4.90835 -4.9084 l -0.64061,2.0691 c -0.35234,1.13801 -0.81612,2.58639 -1.03056,3.21862 l -0.38994,1.14949 -6.19602,0.0549 c -5.40281,0.0477 -6.23422,0.008 -6.49446,-0.30699 -0.16404,-0.19905 -1.64109,-2.55152 -3.28209,-5.2277 l -2.98367,-4.86579 -1.54071,-0.0679 -1.54064,-0.0679 v 4.93456 c 0,2.71401 -0.0624,5.0982 -0.13869,5.29821 -0.11543,0.30298 -0.58543,0.36364 -2.81723,0.36364 -1.47321,0 -2.74711,-0.069 -2.83085,-0.15314 z m 38.1087,-11.57131 c 0.12576,-0.20474 -2.94348,-10.74088 -3.20588,-11.00495 -0.20774,-0.20908 -0.34347,0.16592 -1.57659,4.35424 -0.68605,2.33018 -1.3943,4.72003 -1.57394,5.3107 -0.23364,0.76812 -0.25629,1.1446 -0.0802,1.32192 0.31872,0.32082 6.24049,0.33745 6.4366,0.019 z m -27.24007,-4.31879 c 1.33193,-0.59301 1.83848,-1.37767 1.94218,-3.00864 0.16188,-2.54628 -1.32647,-3.69077 -4.90986,-3.77549 l -1.99999,-0.0473 -0.0634,3.43839 c -0.035,1.89111 -0.008,3.58671 0.0621,3.76797 0.18698,0.49066 3.60378,0.2327 4.96899,-0.37496 z m 40.5142,15.68286 c -0.25199,-0.66087 -0.15923,-26.53088 0.0968,-27.01245 0.21152,-0.39767 0.49832,-0.44466 2.71311,-0.44466 1.7921,0 2.54692,0.0852 2.73084,0.30821 0.17699,0.21479 0.27218,3.68581 0.31351,11.43756 l 0.0594,11.1293 5.36793,0.11486 5.36798,0.11487 v 2.29899 2.299 l -8.25486,0.0603 c -7.37876,0.054 -8.26967,0.0217 -8.39458,-0.30619 z M -55.722518,172.6453 c -0.45229,-0.15669 -1.01527,-0.60923 -1.31344,-1.05558 l -0.52187,-0.78119 V 159.26658 147.7246 l 0.52187,-0.78116 c 0.29817,-0.44635 0.86115,-0.89881 1.31344,-1.05561 1.12225,-0.38902 22.16116,-0.38902 23.28342,0 0.45227,0.15669 1.01525,0.60926 1.31344,1.05561 l 0.52185,0.78116 v 11.54198 11.54195 l -0.52185,0.78119 c -0.29819,0.44635 -0.86117,0.89878 -1.31344,1.05558 -1.12226,0.38902 -22.16117,0.38902 -23.28342,0 z m 32.2759,0.0532 c -1.08549,-0.32402 -1.84459,-1.3771 -2.01597,-2.79668 -0.0803,-0.66515 -0.11348,-5.91657 -0.0739,-11.66982 0.0682,-9.87539 0.097,-10.50172 0.51543,-11.19791 0.80217,-1.33449 0.77426,-1.33167 13.26217,-1.33167 10.5173601,0 11.46792011,0.032 12.01158011,0.40383 1.25382999,0.85767 1.23700999,0.67883 1.23700999,13.16029 0,12.48147 0.0167,12.30259 -1.23700999,13.16028 -0.54109,0.37012 -1.52499001,0.40734 -11.78315011,0.44573 -6.4498,0.0245 -11.49933,-0.0496 -11.91622,-0.17405 z m 32.6053401,0.0795 c -0.88222,-0.167 -1.65288,-0.78537 -1.98953,-1.59627 -0.46646,-1.12366 -0.45552,-22.73316 0.0113,-23.85955 0.688,-1.65723 0.35505,-1.61163 12.3436199,-1.69033 5.91046,-0.0388 11.20266,-0.002 11.76043,0.0782 0.72184,0.10595 1.23208,0.36799 1.77029,0.90968 l 0.75615,0.76103 v 11.84524 11.84521 l -0.58575,0.70062 c -0.32215,0.38533 -0.96459,0.80651 -1.42765,0.93595 -0.82598,0.23081 -21.45322,0.29497 -22.6396399,0.0703 z M -56.084808,140.17333 c -1.50743,-0.7488 -1.47302,-0.44046 -1.47302,-13.19687 0,-12.64696 -0.0145,-12.50913 1.36307,-13.22596 1.00468,-0.52289 23.22322,-0.52289 24.2279,0 1.37726,0.71683 1.36305,0.579 1.36305,13.22596 0,12.79361 0.0373,12.4663 -1.50923,13.20498 -1.08782,0.51954 -22.92436,0.51216 -23.97177,-0.008 z m 31.94856,-0.0916 c -1.3507,-0.8289 -1.32168,-0.57855 -1.40013,-12.08122 -0.0396,-5.81649 -0.006,-11.12633 0.0756,-11.79969 0.10653,-0.88295 0.32845,-1.42776 0.79576,-1.95417 l 0.64794,-0.72985 h 11.9926 11.99260011 l 0.58981,0.55767 c 0.32439,0.30673 0.69186999,0.92746 0.81660999,1.37941 0.34124,1.23633 0.27886,22.2123 -0.069,23.22905 -0.15583,0.4552 -0.60531999,1.02182 -1.04878999,1.32191 l -0.77617,0.52527 -11.44452011,-9.2e-4 c -10.92925,-9.3e-4 -11.47729,-0.0217 -12.17233,-0.44752 z m -24.05619,-31.5861 c -7.28442,-2.18322 -11.75659,-9.451778 -10.41927,-16.934338 1.14474,-6.40509 6.34776,-11.34755 12.79369,-12.15298 8.76327,-1.095 16.58477,5.8833 16.58477,14.79686 0,5.5567 -3.18862,10.808748 -8.00258,13.181208 -2.5894,1.27617 -4.17821,1.64994 -6.95008,1.63503 -1.68126,-0.008 -2.7506,-0.14935 -4.00653,-0.52578 z m 24.05619,-1.28966 c -1.36594,-0.83825 -1.328,-0.46359 -1.328,-13.115748 0,-12.65219 -0.038,-12.27749 1.328,-13.11578 0.69503,-0.42652 1.24307,-0.44666 12.17232,-0.44749 l 11.44453011,-9.2e-4 0.77616,0.52569 c 1.35368999,0.91684 1.37064999,1.09356 1.29825999,13.52479 -0.0639,10.965238 -0.0755,11.219268 -0.54412,11.854178 -0.91125999,1.2347 -0.71855999,1.21661 -12.9981501,1.21933 -10.90939,0.002 -11.45381,-0.0162 -12.149,-0.4441 z m 32.5998101,0.15423 c -0.31031,-0.15802 -0.79857,-0.63737 -1.08501,-1.06517 l -0.52082,-0.77782 V 94.278692 c 0,-11.99678 0.0145,-12.17314 1.13442,-13.17788 0.4959,-0.44515 0.88211,-0.46181 12.1376299,-0.52337 12.78608,-0.0699 12.61224,-0.0871 13.33548,1.3205 0.51954,1.01117 0.51954,23.373318 0,24.384488 -0.71205,1.38583 -0.58194,1.3722 -13.06207,1.36848 -8.64065,-0.002 -11.5110799,-0.0724 -11.9396299,-0.29071 z"
       id="path117" />
  </g>
</svg>
