<?xml version="1.0" encoding="UTF-8" standalone="no"?>
<svg
   xmlns:dc="http://purl.org/dc/elements/1.1/"
   xmlns:cc="http://creativecommons.org/ns#"
   xmlns:rdf="http://www.w3.org/1999/02/22-rdf-syntax-ns#"
   xmlns:svg="http://www.w3.org/2000/svg"
   xmlns="http://www.w3.org/2000/svg"
   xmlns:sodipodi="http://sodipodi.sourceforge.net/DTD/sodipodi-0.dtd"
   xmlns:inkscape="http://www.inkscape.org/namespaces/inkscape"
   width="227.12735mm"
   height="280.92404mm"
   viewBox="0 0 227.12735 280.92404"
   version="1.1"
   id="svg8"
   inkscape:version="1.0.2 (1.0.2+r75+1)">
  <defs
     id="defs2" />
  <sodipodi:namedview
     id="base"
     pagecolor="#ffffff"
     bordercolor="#666666"
     borderopacity="1.0"
     inkscape:pageopacity="0.0"
     inkscape:pageshadow="2"
     inkscape:zoom="0.35"
     inkscape:cx="-395.37137"
     inkscape:cy="562.73063"
     inkscape:document-units="mm"
     inkscape:current-layer="layer1"
     inkscape:document-rotation="0"
     showgrid="false"
     fit-margin-top="0"
     fit-margin-left="0"
     fit-margin-right="0"
     fit-margin-bottom="0"
     inkscape:window-width="1920"
     inkscape:window-height="1003"
     inkscape:window-x="1600"
     inkscape:window-y="0"
     inkscape:window-maximized="1" />
  <metadata
     id="metadata5">
    <rdf:RDF>
      <cc:Work
         rdf:about="">
        <dc:format>image/svg+xml</dc:format>
        <dc:type
           rdf:resource="http://purl.org/dc/dcmitype/StillImage" />
        <dc:title></dc:title>
      </cc:Work>
    </rdf:RDF>
  </metadata>
  <g
     inkscape:label="Layer 1"
     inkscape:groupmode="layer"
     id="layer1"
     transform="translate(-338.1008,0.71663518)">
    <path
       style="fill:#000000;stroke-width:0.0846667"
       id="path947"
       d="" />
    <path
       style="fill:#000000;stroke-width:0.264583"
       id="path1006"
       d="" />
    <path
       style="fill:#ffffff;stroke-width:0.264583"
       d="m 445.04987,279.95851 c -3.49963,-0.58269 -5.52718,-2.84972 -4.98285,-5.57141 0.2788,-1.39398 1.17613,-2.53867 2.49121,-3.17799 l 1.24361,-0.60454 -0.58455,-0.5769 c -1.21411,-1.19824 -1.10454,-2.82276 0.28405,-4.21135 l 0.85892,-0.85894 -0.87516,-0.69829 c -1.32835,-1.05992 -2.02319,-2.62541 -2.01032,-4.52932 0.0218,-3.22268 1.49266,-5.05767 4.68568,-5.84563 1.49264,-0.36835 2.04582,-0.38951 3.44447,-0.13181 0.91644,0.16886 2.93245,0.30702 4.48002,0.30702 h 2.81377 v 0.7629 c 0,0.84918 -0.46275,1.07932 -2.18282,1.08556 -0.5457,0.003 -0.99218,0.0502 -0.99218,0.10702 0,0.0569 0.23551,0.62241 0.52335,1.25678 1.06344,2.34359 0.45889,5.19998 -1.43011,6.75706 -1.2387,1.02105 -2.5385,1.40777 -4.73158,1.40777 -1.43115,0 -1.8589,0.1058 -2.40674,0.59531 -0.95549,0.85376 -1.13204,1.86923 -0.44452,2.55675 0.49252,0.49252 0.86477,0.5521 3.44949,0.5521 4.64874,0 6.52771,0.66188 7.56315,2.66422 0.4886,0.94483 0.50123,3.43668 0.0231,4.55417 -0.82086,1.91847 -2.97716,3.14685 -6.33558,3.60918 -2.33315,0.32121 -2.90399,0.32007 -4.88439,-0.01 z m 6.77879,-2.67171 c 1.57336,-0.78999 2.2318,-1.71844 2.2318,-3.14703 0,-1.66714 -0.79862,-2.25229 -3.40761,-2.49677 -2.5837,-0.24212 -5.38583,-0.0122 -6.42981,0.52774 -2.03394,1.05177 -2.15894,4.16822 -0.20919,5.21584 1.75163,0.94118 5.84578,0.88889 7.81481,-0.0998 z m -1.33017,-14.23839 c 1.02142,-0.62275 1.63773,-1.91458 1.63773,-3.43281 0,-2.555 -1.42101,-3.96605 -3.99577,-3.96777 -1.65419,0 -3.01807,0.70258 -3.60325,1.85904 -0.48552,0.95951 -0.43035,3.71192 0.0893,4.45379 1.14437,1.6338 4.08339,2.17823 5.87202,1.08775 z m -25.51278,8.76102 c -1.57286,-0.71427 -2.54748,-2.1136 -2.69283,-3.86628 -0.1818,-2.19223 0.11209,-3.20257 1.26771,-4.35816 1.36321,-1.36322 3.61475,-2.05423 7.4529,-2.28735 l 2.92283,-0.17751 -0.10737,-1.68627 c -0.0932,-1.46381 -0.21668,-1.79557 -0.93603,-2.51492 -1.13496,-1.13495 -3.012,-1.30225 -5.54331,-0.49403 -0.99221,0.31679 -1.94158,0.63468 -2.10971,0.70641 -0.34801,0.14849 -1.01074,-1.59602 -0.76028,-2.00128 0.0892,-0.14441 0.96093,-0.51271 1.93704,-0.81841 3.43169,-1.07474 7.42862,-0.61788 8.87752,1.01471 1.07543,1.21176 1.20788,2.26089 1.22,9.66306 l 0.0116,7.09355 -0.99105,-0.0821 c -0.95786,-0.0794 -0.99875,-0.12448 -1.22072,-1.34694 l -0.22966,-1.26484 -1.25788,1.1766 c -0.69889,0.65374 -1.71432,1.30334 -2.28501,1.46177 -1.62416,0.45099 -4.31514,0.34536 -5.55577,-0.21801 z m 6.20506,-2.25179 c 1.69679,-0.88292 2.68919,-2.74296 2.68919,-5.04029 v -1.46526 l -2.3151,0.15695 c -4.10774,0.27847 -5.69633,0.98674 -6.40439,2.85536 -0.57955,1.5295 0.44608,3.63984 1.92682,3.96457 0.92691,0.2033 3.33956,-0.0738 4.10348,-0.47133 z m 33.73123,2.32471 c -1.5892,-0.56314 -3.37651,-2.25335 -4.23811,-4.00794 -0.69795,-1.42129 -0.74247,-1.71815 -0.74247,-4.95152 0,-2.93949 0.081,-3.61463 0.55713,-4.64365 0.81186,-1.75461 2.05668,-3.04225 3.73489,-3.86331 1.2374,-0.60539 1.82606,-0.72334 3.61992,-0.72525 2.75329,-0.003 4.45963,0.70453 6.10012,2.52915 1.65377,1.83939 2.12835,3.3963 2.1239,6.96765 -0.003,2.64686 -0.0731,3.06154 -0.77065,4.57946 -0.94306,2.05213 -2.60982,3.60008 -4.47176,4.153 -1.66593,0.49475 -4.4608,0.47697 -5.91297,-0.0376 z m 4.58975,-1.987 c 2.71388,-0.68336 3.91812,-3.08525 3.73979,-7.45916 -0.12057,-2.95743 -0.64148,-4.40322 -1.96019,-5.44052 -1.5707,-1.2355 -4.57335,-1.37173 -6.32832,-0.2871 -3.35435,2.07309 -3.20558,10.90131 0.21467,12.739 1.34569,0.72305 2.68949,0.86188 4.33405,0.44778 z m 13.35665,2.05944 c -1.52652,-0.55261 -2.60185,-1.81242 -2.97668,-3.48737 -0.62347,-2.78593 0.53212,-5.03409 3.16946,-6.16614 1.38436,-0.5942 4.58148,-1.09818 6.96661,-1.09818 h 1.60538 l -0.14712,-1.42544 c -0.0809,-0.78399 -0.34361,-1.80539 -0.58376,-2.26981 -0.8653,-1.6733 -3.45846,-2.04708 -6.57415,-0.94755 l -1.80704,0.63767 -0.39387,-0.94266 c -0.21663,-0.51847 -0.29644,-1.03669 -0.17734,-1.15159 0.63641,-0.61402 3.7456,-1.34295 5.75203,-1.34853 3.65217,-0.0103 5.6243,1.25984 6.21206,4.0005 0.16666,0.7771 0.29099,4.1208 0.29099,7.82605 v 6.46928 h -1.03731 c -0.95841,0 -1.05048,-0.0654 -1.21038,-0.8599 -0.37713,-1.8738 -0.36094,-1.86306 -1.30271,-0.8645 -1.2998,1.37819 -2.84768,1.98007 -5.04856,1.96305 -1.01865,-0.008 -2.25057,-0.15859 -2.73761,-0.33488 z m 4.85427,-2.05195 c 2.43833,-0.67535 3.57188,-2.30354 3.57188,-5.13046 v -1.74347 l -1.65365,0.15367 c -4.96803,0.46173 -5.72326,0.69718 -6.54165,2.03949 -1.02617,1.68312 -0.55304,3.70681 1.05523,4.51342 1.06475,0.53404 2.07352,0.58134 3.56819,0.16735 z m 13.01493,2.12246 c -1.78363,-0.41965 -2.03472,-0.66252 -2.03472,-1.96797 0,-0.64971 0.0409,-1.18131 0.0909,-1.18131 0.05,0 0.79412,0.25289 1.65365,0.56197 2.06148,0.74134 5.67003,0.82209 6.91274,0.15471 1.01391,-0.54449 1.39691,-1.17864 1.39691,-2.31291 0,-1.2436 -1.13526,-2.12979 -4.56259,-3.56164 -4.48546,-1.87391 -5.49158,-2.84366 -5.49158,-5.29317 0,-3.03647 2.45355,-4.75584 6.74688,-4.728 2.03169,0.0132 5.42395,0.73784 5.42395,1.15869 0,0.23072 -0.77111,2.11571 -0.86344,2.11069 -0.0344,-0.003 -0.81734,-0.24001 -1.73981,-0.52917 -2.77149,-0.86876 -5.61027,-0.59775 -6.63102,0.63304 -0.53801,0.64873 -0.41355,1.98366 0.2509,2.69092 0.31638,0.33676 1.54433,0.99716 2.72878,1.46751 5.55098,2.20435 6.79407,3.30676 6.77795,6.01094 -0.0133,2.22744 -1.46036,3.97901 -3.89186,4.7108 -1.33952,0.40312 -5.1913,0.44577 -6.76761,0.0749 z m -109.74042,-0.56959 c 0.38838,-1 9.05936,-23.06204 9.20298,-23.41563 0.0776,-0.19116 0.60581,-0.33073 1.25155,-0.33073 h 1.11721 l 4.67532,11.99341 c 2.57142,6.59635 4.67531,12.07947 4.67531,12.18464 0,0.1052 -0.6242,0.15528 -1.38711,0.11131 l -1.38711,-0.08 -1.45716,-3.77209 -1.45716,-3.77208 -4.8833,0.0679 -4.88329,0.0679 -1.43971,3.77032 -1.43971,3.77031 h -1.40951 c -1.35383,0 -1.40038,-0.0236 -1.17831,-0.59531 z m 13.59975,-11.50938 c -0.37637,-0.98226 -1.25082,-3.39235 -1.94323,-5.35577 l -1.25892,-3.56982 -0.39715,1.32086 c -0.21843,0.72649 -1.06505,3.09414 -1.88137,5.26148 -0.81631,2.16733 -1.48421,3.98303 -1.48421,4.03489 0,0.0519 1.72107,0.0943 3.8246,0.0943 h 3.8246 z m 10.49762,-0.7276 v -12.83229 h 1.32291 1.32292 v 12.83229 12.83229 h -1.32292 -1.32291 z m -55.5625,-39.02604 v -15.875 h 8.99583 8.99583 v 2.77812 2.77813 h -5.68854 -5.68854 v 4.10104 4.10104 h 5.29167 5.29166 v 2.77812 2.77813 h -5.29166 -5.29167 v 6.21771 6.21771 h -3.30729 -3.30729 z m 24.34166,0 v -15.875 h 8.99584 8.99583 v 2.77812 2.77813 h -5.68854 -5.68854 v 3.43958 3.43958 h 5.29166 5.29167 v 2.77813 2.77812 h -5.29167 -5.29166 v 4.10104 4.10105 h 5.68854 5.68854 v 2.77812 2.77813 h -8.99583 -8.99584 z m 24.60625,2.6e-4 V 204.2599 l 6.81302,0.13094 c 7.67097,0.14742 8.99428,0.36451 12.06821,1.97981 3.59433,1.88877 6.02731,5.24731 6.94612,9.5886 0.51531,2.43478 0.35666,7.34661 -0.30765,9.525 -1.55868,5.11117 -4.79707,8.22224 -10.21921,9.81752 -1.69156,0.49768 -2.79164,0.58669 -8.61976,0.69736 l -6.68073,0.12687 z m 12.48854,10.02163 c 1.81935,-0.38508 2.75891,-0.86551 4.00419,-2.04751 1.29287,-1.22714 1.97176,-2.55188 2.44008,-4.76139 0.94044,-4.43702 -0.0168,-9.14057 -2.30702,-11.33548 -1.59713,-1.53069 -3.13157,-2.01701 -6.77006,-2.14565 l -3.24114,-0.1146 v 10.35069 10.35069 h 2.23593 c 1.22977,0 2.86688,-0.13353 3.63802,-0.29675 z m 20.3198,-10.02189 v -15.875 h 8.99583 8.99584 v 2.77812 2.77813 h -5.68854 -5.68855 v 3.43958 3.43958 h 5.29167 5.29167 v 2.77813 2.77812 h -5.29167 -5.29167 v 4.10104 4.10105 h 5.68855 5.68854 v 2.77812 2.77813 h -8.99584 -8.99583 z m 24.60625,-0.0296 v -15.90458 l 6.54844,0.13299 c 4.43684,0.0901 7.02474,0.25576 8.02555,0.51373 4.82851,1.2446 7.12369,4.02208 7.12037,8.61664 -8e-4,1.12233 -0.12323,2.47894 -0.27203,3.01469 -0.45504,1.63836 -1.88675,3.4471 -3.62703,4.58216 -0.89244,0.58208 -1.63007,1.15752 -1.63917,1.27876 -0.0202,0.26884 8.7872,13.39093 8.99359,13.3995 0.0806,0.003 2.62956,-7.08104 5.66431,-15.7431 l 5.51772,-15.74922 4.12527,0.0727 4.12527,0.0726 5.35959,15.21354 c 2.94777,8.36745 5.43122,15.48143 5.51879,15.80885 l 0.15919,0.59532 h -3.56119 -3.5612 l -1.00093,-3.37344 c -0.55051,-1.85539 -1.1082,-3.5818 -1.23929,-3.83646 -0.21575,-0.4191 -0.77478,-0.46302 -5.89183,-0.46302 h -5.65346 l -0.53814,1.78594 c -0.29598,0.98226 -0.80767,2.70867 -1.13711,3.83645 l -0.59897,2.05053 h -7.3043 -7.3043 l -3.73028,-6.01928 -3.73027,-6.01927 -1.87701,-0.0777 -1.877,-0.0777 v 6.09701 6.09701 h -3.30729 -3.30729 z m 44.45,2.41986 c 0,-0.14055 -0.83344,-2.95942 -1.85208,-6.26416 -1.01865,-3.30474 -1.85209,-6.16631 -1.85209,-6.35904 0,-0.19272 -0.0893,-0.35013 -0.19844,-0.34979 -0.15455,5.3e-4 -3.16124,9.63732 -3.94155,12.63324 l -0.15506,0.59531 h 3.99961 c 2.39579,0 3.99961,-0.10247 3.99961,-0.25556 z m -31.75541,-4.83767 c 1.74839,-0.89338 2.25437,-1.74853 2.25437,-3.81004 0,-1.63874 -0.0455,-1.76246 -0.95588,-2.59673 -1.11591,-1.02265 -2.78742,-1.46458 -5.53944,-1.46458 h -1.83906 v 4.23333 4.23333 h 2.45748 c 2.02691,0 2.66161,-0.1043 3.62253,-0.59531 z m 46.90072,2.51354 0.0682,-15.80885 3.37344,-0.074 3.37343,-0.074 v 13.10478 13.10478 h 6.35 6.35 v 2.77812 2.77813 h -9.79166 -9.79167 z M 393.6633,198.33446 c -1.92837,-0.21485 -4.12626,-0.69772 -5.47808,-1.20349 l -1.40109,-0.52422 v -3.14659 -3.14659 l 1.17193,0.50235 c 5.47223,2.34567 10.31416,2.66782 11.89316,0.79129 0.91427,-1.08655 1.08904,-2.14659 0.54344,-3.29634 -0.5563,-1.17232 -1.69973,-1.96507 -5.93561,-4.11519 -3.70178,-1.87901 -5.53778,-3.45107 -6.62768,-5.67487 -0.92038,-1.87794 -0.9266,-5.44744 -0.013,-7.48226 0.78815,-1.75546 2.72853,-3.53394 4.73527,-4.34016 1.3197,-0.5302 1.97227,-0.6065 5.21272,-0.60953 3.77146,-0.004 5.32067,0.28661 8.39956,1.57305 l 0.96211,0.40199 -0.99793,2.3834 c -0.54886,1.31087 -1.06687,2.45233 -1.15112,2.53658 -0.0842,0.0843 -1.29649,-0.21305 -2.69388,-0.66067 -5.28823,-1.69397 -8.61979,-0.81332 -8.61979,2.27852 0,1.73243 0.94472,2.58297 5.47838,4.93226 6.24603,3.23662 7.73151,4.92443 7.95713,9.04099 0.0638,1.16416 -0.0177,2.61165 -0.18105,3.21663 -0.71516,2.64806 -3.11958,4.92763 -6.20125,5.87924 -1.64153,0.5069 -5.33814,0.8547 -7.05321,0.66361 z m 95.10822,-0.10277 c -3.17852,-0.43693 -6.05653,-1.84739 -7.67521,-3.76149 -0.40379,-0.47748 -1.1021,-1.64204 -1.55181,-2.58793 l -0.81766,-1.71979 -0.0787,-11.9724 -0.0787,-11.97239 h 3.30667 3.30667 l 0.0793,11.31093 c 0.077,10.97964 0.0959,11.34194 0.64646,12.36927 1.11334,2.07752 2.52205,2.77813 5.58599,2.77813 3.26784,0 5.13456,-1.24983 5.88115,-3.93763 0.158,-0.56879 0.26648,-5.33511 0.26735,-11.74684 l 0.002,-10.78967 3.37344,0.074 3.37343,0.074 0.0714,9.65729 c 0.0393,5.31151 -0.0456,10.7137 -0.18869,12.00487 -0.57028,5.14631 -3.43425,8.53405 -8.27883,9.79288 -1.89539,0.49251 -5.28741,0.69285 -7.22382,0.42667 z m 58.87906,-0.0116 c -3.50923,-0.48046 -6.70245,-2.07912 -8.61924,-4.31514 -1.33534,-1.55775 -2.67035,-4.46158 -3.14468,-6.84013 -0.51573,-2.58612 -0.51916,-7.70505 -0.007,-10.12387 0.59295,-2.79924 1.98027,-5.47338 3.76159,-7.2507 2.64032,-2.63439 5.96952,-3.81032 10.78746,-3.81032 6.50772,0 10.88181,2.39887 13.15937,7.21697 1.4282,3.02129 1.65968,4.32939 1.63883,9.26042 -0.0169,4.00239 -0.0778,4.5452 -0.73139,6.52393 -1.96553,5.95071 -6.14963,9.01318 -12.88999,9.43459 -1.22933,0.0769 -3.00915,0.0338 -3.95516,-0.0958 z m 6.23264,-6.17207 c 3.11687,-1.45138 4.46619,-4.45907 4.46619,-9.95529 0,-4.51751 -0.62042,-6.58732 -2.57626,-8.59488 -1.56276,-1.60407 -2.66714,-2.02152 -5.34802,-2.02152 -2.52356,0 -3.75936,0.47224 -5.33555,2.0389 -1.96092,1.94906 -2.59816,4.05281 -2.59816,8.5775 0,4.52314 0.63706,6.62703 2.59816,8.58037 1.62,1.61359 2.50494,1.94066 5.33934,1.97336 1.7023,0.0197 2.37853,-0.0975 3.4543,-0.59844 z M 338.1008,182.09269 v -15.875 h 3.30729 3.30729 v 15.875 15.875 h -3.30729 -3.30729 z m 14.55208,-0.007 v -15.88155 l 4.27425,0.0727 4.27425,0.0727 6.50752,11.26165 c 3.57914,6.19392 6.71315,11.55173 6.96446,11.90625 0.45683,0.64444 0.4569,0.64432 0.29706,-0.47897 -0.0879,-0.61796 -0.17449,-5.97577 -0.19236,-11.90625 l -0.0325,-10.78267 2.97657,-0.0748 2.97656,-0.0748 v 15.89022 15.89021 l -4.26477,-0.0727 -4.26477,-0.0727 -6.78158,-11.83835 c -6.12117,-10.68549 -7.61339,-13.06317 -7.05827,-11.24654 0.10006,0.32742 0.24941,5.68523 0.33189,11.90625 l 0.14998,11.31094 h -3.07916 -3.07915 v -15.88156 z m 65.8176,2.85084 -0.0686,-13.03073 -4.29948,-0.0727 -4.29948,-0.0727 v -2.77157 -2.77157 h 11.90625 11.90625 v 2.77812 2.77813 h -4.23334 -4.23333 v 13.09687 13.09688 h -3.3048 -3.30479 z m 20.17199,-2.84427 v -15.875 h 3.30729 3.30729 v 15.875 15.875 h -3.30729 -3.30729 z m 20.04468,2.84427 -0.0686,-13.03073 -4.29948,-0.0727 -4.29948,-0.0727 v -2.77157 -2.77157 h 11.90625 11.90625 v 2.77812 2.77813 h -4.23333 -4.23334 v 13.09687 13.09688 h -3.3048 -3.30479 z m 58.80115,-0.0661 v -13.09687 h -4.23334 -4.23333 v -2.77813 -2.77812 h 11.90625 11.90625 v 2.77812 2.77813 h -4.23333 -4.23334 v 13.09687 13.09688 h -3.43958 -3.43958 z M 399.80607,144.10892 c -1.38377,-0.96924 -1.38057,-0.93407 -1.37637,-15.1182 0.004,-14.16644 -0.0163,-13.94772 1.40456,-15.00273 0.73548,-0.54612 0.95472,-0.55468 14.20195,-0.55468 13.24724,0 13.46648,0.009 14.20196,0.55468 1.42084,1.05501 1.40037,0.83629 1.40456,15.00273 0.003,11.17767 -0.0561,13.29212 -0.39146,13.94071 -0.85489,1.65317 -0.2546,1.59042 -15.21506,1.59042 -11.93255,0 -13.71441,-0.0517 -14.23014,-0.41293 z m 36.82556,-0.48665 -0.89958,-0.89958 v -13.53335 c 0,-14.70659 -0.0128,-14.57352 1.47269,-15.36851 1.05956,-0.56706 26.92883,-0.57909 27.98655,-0.013 1.67165,0.89465 1.62178,0.46465 1.70561,14.70675 0.0675,11.4634 0.0264,13.09544 -0.35477,14.0947 -0.75419,1.97723 -0.23116,1.91259 -15.47757,1.91259 H 437.53121 Z M 399.80607,106.2735 c -1.38343,-0.969 -1.38035,-0.93516 -1.37928,-15.118197 0.001,-12.58011 0.0242,-13.214295 0.51501,-14.01917 0.96472,-1.582182 0.53352,-1.53824 15.09441,-1.53824 14.56089,0 14.1297,-0.04394 15.09442,1.53824 0.49077,0.804875 0.51407,1.43906 0.51501,14.01917 7.9e-4,11.173647 -0.0591,13.292357 -0.39437,13.940707 -0.85489,1.65317 -0.2546,1.59042 -15.21506,1.59042 -11.93255,0 -13.71441,-0.0517 -14.23014,-0.41293 z m 37.27802,0.0437 c -1.33927,-0.74229 -1.33263,-0.6679 -1.34267,-15.05589 -0.008,-11.249242 0.0533,-13.561944 0.37502,-14.184088 0.75553,-1.461023 0.94564,-1.479335 15.35832,-1.479335 12.18224,0 13.28328,0.03678 13.913,0.46477 1.45231,0.98707 1.43283,0.781211 1.43283,15.145646 0,14.467917 0.0146,14.321207 -1.49886,15.103827 -1.03311,0.53424 -27.27439,0.53896 -28.23764,0.005 z m 37.21934,-0.2274 c -0.39558,-0.3267 -0.84206,-0.92917 -0.99218,-1.33883 -0.17354,-0.47357 -0.27295,-5.415097 -0.27295,-13.568394 0,-13.96743 0.0167,-14.137044 1.48721,-15.101093 0.68328,-0.44795 1.65522,-0.489672 13.18511,-0.565962 6.84611,-0.0453 12.97608,-0.0048 13.62215,0.08988 0.83497,0.122436 1.42796,0.425537 2.05052,1.048091 l 0.87584,0.875845 v 13.678958 13.678955 l -0.89958,0.89959 -0.89958,0.89958 -13.71865,-0.001 -13.71865,-10e-4 -0.71924,-0.594 z M 400.13201,69.234277 c -1.74608,-0.861734 -1.70621,-0.506888 -1.70621,-15.187741 0,-14.554899 -0.0165,-14.396289 1.57884,-15.221246 1.16371,-0.601782 26.89944,-0.601782 28.06315,0 1.59529,0.824957 1.57884,0.666347 1.57884,15.221246 0,14.723646 0.0433,14.346967 -1.74815,15.197081 -1.26001,0.597914 -26.55328,0.589405 -27.76647,-0.0093 z m 37.00598,-0.105507 c -0.46365,-0.28271 -0.96967,-0.750687 -1.12447,-1.03995 -0.18847,-0.352145 -0.28147,-5.032817 -0.28147,-14.165191 V 40.284366 l 0.77204,-0.864068 0.77205,-0.864071 h 13.89102 13.89101 l 0.68318,0.64181 c 0.37574,0.352997 0.80139,1.067372 0.94588,1.5875 0.39525,1.422842 0.323,25.56329 -0.08,26.733402 -0.18044,0.52388 -0.70114,1.175975 -1.21482,1.521354 l -0.89902,0.604475 -13.25619,-0.0011 c -12.65934,-0.0011 -13.29414,-0.02413 -14.0992,-0.515009 z M 409.95276,32.97304 c -3.40693,-0.824061 -6.77089,-2.9713 -9.19059,-5.866421 -1.24736,-1.492433 -2.9387,-4.916133 -3.42791,-6.938933 -0.48941,-2.023589 -0.41887,-6.107343 0.1413,-8.180927 1.6294,-6.0315875 6.40288,-10.7533098 12.44906,-12.31408183 2.0092,-0.51866 6.11656,-0.519139 8.31475,-0.0011 4.52972,1.067766 9.03583,4.66374413 11.10654,8.86326623 1.45453,2.9498846 1.97849,5.4781346 1.81013,8.7343636 -0.22895,4.427866 -1.81735,7.934624 -5.09665,11.252004 -2.05362,2.077469 -4.98075,3.733506 -7.91158,4.476004 -1.96431,0.497642 -6.0877,0.485413 -8.19505,-0.02432 z m 27.18523,-1.679686 c -0.46365,-0.28271 -0.96967,-0.750687 -1.12447,-1.03995 -0.18843,-0.352066 -0.28147,-5.016773 -0.28147,-14.110494 0,-14.8987588 -0.0624,-14.3043378 1.59042,-15.15902683 0.64833,-0.335266 2.77149,-0.395364 13.96773,-0.395364 h 13.20318 l 0.89902,0.60498603 c 1.56798,1.055148 1.58763,1.258549 1.50378,15.5651488 -0.074,12.619495 -0.0875,12.911814 -0.63026,13.642527 -1.05551,1.420956 -0.83232,1.400151 -15.05574,1.403281 -12.63636,0.0028 -13.26695,-0.02013 -14.07219,-0.511108 z m 37.7779,0.181369 c -0.34978,-0.179755 -0.88556,-0.662982 -1.19063,-1.073835 -0.54611,-0.735476 -0.55467,-0.954715 -0.55467,-14.201952 0,-13.2472378 0.009,-13.4664768 0.55467,-14.2019518 1.05502,-1.42084703 0.8363,-1.40037103 15.00274,-1.40456503 14.45572,-0.0043 14.30502,-0.01998 15.12978,1.57494003 0.60178,1.1637146 0.60178,26.8994388 0,28.0631528 -0.82476,1.594905 -0.67406,1.579218 -15.12978,1.57494 -9.93095,-0.0029 -13.33279,-0.0844 -13.81211,-0.330729 z"
       id="path1065" />
  </g>
</svg>
